<?xml version="1.0" encoding="UTF-8"?>
<svg id="Layer_1" xmlns="http://www.w3.org/2000/svg" version="1.1" viewBox="0 0 114.22 81.75">
  <!-- Generator: Adobe Illustrator 30.4.0, SVG Export Plug-In . SVG Version: 2.1.4 Build 226)  -->
  <defs>
    <style>
      .st0 {
        fill: #e6b55f;
      }
    </style>
  </defs>
  <path class="st0" d="M14.24,30.94c-.26.36-.39.5-.78,1.09-.49.86-.89,1.61-2.92,2.21,1.85.89,2.53,2.11,2.53,3.67,0,.6-.31,1.98-.75,2.4-1.07,1.85-3.88,3.26-5.86,3.26-.96,0-3.1-.52-3.1-1.82,0-.16.13-.36.39-.36.13,0,.34.05.36.26.37.94,1.43.94,2.34.94.68,0,1.59-.08,2.08-.39,1.25-.75,1.82-1.95,2.32-3.02.18-.39.29-.75.29-1.17,0-1.35-.52-2.6-2.01-2.97-.16.05-.26.05-.47.05-.13,0-.34,0-.5-.03-.55-.05-.62-.36-.62-.42v-.29c0-.39.57-.47.96-.47.26,0,.68,0,1.02.05.94-.39,2.6-1.43,3.05-2.63.1-.31.24-1.25.24-1.51v-.39c0-.21-.03-.47-.31-.68-.23-.26-.57-.78-1.04-.78-1.22,0-1.95.57-2.81,1.3-.13.13-.21.13-.26.13-.21,0-.39-.18-.39-.39,0-.13.16-.29.31-.44.96-.83,1.72-1.46,3.15-1.46h.68c.6,0,1.12.13,1.43.36.78.57,1.28,1.25,1.28,2.24,0,.31-.26.76-.6,1.25h0Z"/>
  <path class="st0" d="M25.77,28.07c-2.58.7-4.74,2.63-6.04,4.84-.57.94-.96,1.98-1.43,3.13,1.51-1.22,2.21-1.64,3.36-1.64,2.08,0,3.2,1.61,3.2,3.54,0,1.43-1.07,3.59-1.95,4.22-.16.13-.34.21-.55.26-.57.16-1.04.5-1.72.6-.13.18-.23.18-.34.18-.76,0-2.14-.23-2.61-.68-.88-.81-1.41-1.3-1.59-1.93-.13-.47-.23-1.25-.23-1.8,0-2.34,1.67-5.91,3.57-8.13.1-.13.21-.26.37-.34.96-.89,1.75-1.72,3.1-2.27.91-.34,1.43-.47,2.06-.65l.68-.13c.21.05.42.1.42.42,0,.21-.08.29-.29.36v.02ZM21.65,35.23c-.81,0-1.43.29-1.98.68-.21.13-.57.44-.86.73-.21.18-.42.39-.81.65-.08.08-.16.08-.26.08-.08.65-.1.78-.18.91-.08.1-.13.23-.13.34.16,1.15.26,1.46.47,1.98.16.44.21.62.34.81.23.44.68.7,1.46.81.86-.05,1.49-.49,1.49-.49.08-.1.55-.63.75-.78.78-.55,1.12-2.21,1.12-3.41,0-1.07-.26-2.29-1.41-2.29v-.02Z"/>
  <path class="st0" d="M37.27,28.36c-.26.18-.34.18-.42.18h-.31c-.21,0-.47.05-.94.26-.39.16-2.27.52-2.81.52-.05,0-.42,0-1.43.05-.21.31-.55.94-.86,1.43-.21.36-.42.65-.62,1.02.03.13.05.16.08.18.29,0,.73.05.99.05.7.03.91.13,1.28.23l.57.16c.31.08.78.21.96.31.26.16.75.55,1.02,1.02.21.36.6,1.41.6,1.8,0,1.67-1.3,3.07-2.5,4.38l-.23.29c-.81.86-1.9,1.41-3.18,2.03-.96.5-1.75.73-2.01.73-.52,0-.6-.16-.6-.47,0-.1.31-.44.44-.5,1.09-.29,2.42-.73,3.39-1.33,1.38-.86,3-2.5,3-4.32,0-.89-.16-1.69-.99-2.14-.42-.23-1.02-.5-1.75-.55h-1.2c-1.15-.16-1.25-.36-1.25-.91,0-.18.08-.36.23-.62.52-.89.86-1.48,1.15-2.06.31-.6.57-1.2,1.09-2.03.1-.18.44-.36.6-.39l5.65-.23.23-.05c.39,0,.47.29.47.29,0,.18-.36.47-.65.68h0Z"/>
  <path class="st0" d="M60.27,37.98l-.26.29c-.18.23-.37.47-2.24,2.34-1.02.99-1.51,1.33-2.08,1.41l-.44.08c-.37.08-.81.13-1.25.13s-.86-.1-1.35-.26l-.99-.44c-1.33-.62-2.19-1.04-3.2-1.07-1.07,1.88-2.37,3.33-4.22,3.33-.44,0-1.95-1.07-1.95-1.33,0-1.2,3.1-2.42,4.69-2.66.83-1.77,1.2-2.53,1.51-3.33.23-.63.52-1.3,1.2-2.87-.94.44-1.82.78-2.5,1.07-.6.23-1.12.47-1.61.68-.16,0-.52,0-.52-.31,0-.23.13-.29.26-.31.62-.31.86-.5,1.12-.63.94-.31,1.48-.65,3.67-1.64,1.02-2.89,1.38-3.67,1.8-4.35.05-.1.18-.21.29-.31.05-.03.1-.08.13-.13.13-.13,0-.34.26-.55.7-.89,1.61-1.51,2.68-1.51s1.67.63,1.67,1.56c0,1.04-.76,2.19-1.62,2.76-.34.31-.44.44-.55.57-.13.16-.21.29-.5.49-.68.52-1.67,1.12-2.27,1.46-.5,1.56-1.07,3.05-1.59,4.22,0,.13-.05.31-.05.42-.44.86-.99,1.67-1.51,2.58.44,0,.96.05,1.3.08.62.05,1.12.18,1.98.36.65.16,1.3.29,2.01.29,1.72,0,3.1-.5,4.69-1.98.29-.29.68-.7.96-1.04.08-.13.18-.18.31-.18.18,0,.39.21.39.39,0,.13-.13.26-.21.39h0ZM46.52,40.71c-.89.21-2.06.57-2.76.99-.03,0-.16.21-.29.34-.13.1-.21.21-.21.31,0,.13.83.39.83.39l.42-.21c.86-.08,1.3-.62,2.01-1.82ZM55.14,26.49c-.75,0-1.46,1.15-1.88,2.06-.39.83-.68,1.72-.94,2.66,1.88-1.22,3.67-2.4,3.67-4.14,0-.42-.44-.57-.86-.57h.01Z"/>
  <path class="st0" d="M67.54,38.76c-1.15,1.38-2.42,2.47-3.99,3.59-.34.26-1.15.42-1.33.42-1.38,0-1.49-1.12-1.49-1.51.24-.68.29-1.43.47-2.19.1-.36.68-1.69.68-1.95.16-.39.26-.57.36-.96,0-.03-.1-.16-.31-.16-.49.47-.7.86-.88,1.07l-1.38,1.64c-.16.16-.29.29-.42.29-.26,0-.47-.29-.47-.42,0,0,0-.1.1-.23l1.51-1.75c.36-.44.91-.81,1.15-1.07.76-.86.76-1.12,1.59-.96.44.08.94.29.94.94,0,.1-.1.44-.21.83l-.65,2.01c-.03.18-.1.42-.13.6-.47,1.41-.65,1.85-.65,2.45,0,.05.03.23.34.23.18,0,.73-.23.91-.36,1.33-.96,2.84-2.55,3.67-3.49.42,0,.42.47.42.47,0,.18-.21.5-.23.52h0ZM64.7,32.04c-.73,0-.81-1.07-.81-1.56s.16-.65.62-.65c.18,0,.34.1.5.34.08.1.18.13.26.21.39.39.39.5.39.65,0,.34-.57,1.02-.96,1.02h0Z"/>
  <path class="st0" d="M79.42,38.68c-.26.29-.81.89-1.43.89-.83,0-1.61-.68-2.27-1.85-1.59,2.06-2.76,3.39-4.06,4.74-.08.08-.18.26-.26.39-.1.34-.16.23-.23.34-.23.26-.44.42-.73.42-.26,0-.7-.34-.81-.86-.03-.62-.1-4.09-.1-4.51,0-.52.05-1.12.21-1.95-.47.63-.75.96-.91,1.17l-1.28,1.33c-.16.16-.26.16-.31.16-.21,0-.39-.18-.39-.39,0-.03,0-.08.05-.18.39-.52.78-.96,1.15-1.33l.65-.73c.21-.23.39-.44.47-.57.16-.21.34-.47.49-.6.18-.16.39-.26.7-.26.26,0,.73.13.78.29.03.13.13.26.18.36.34.47.39.65.39.89,0,.08-.03.23-.1.44-.16.44-.26,1.28-.29,2.11,0,.26-.03.52-.03.76,0,.55-.03,1.09-.05,1.43,0,.21-.1.36-.16.6.96-1.02,1.43-1.48,1.82-1.93.62-.68,1.2-1.33,1.95-2.34.18-.21.42-.44.42-.68,0-.18-.03-.39-.08-.6s-.08-.42-.08-.62c0-.62.7-1.77,1.22-1.77.21,0,.86.65.86.99,0,.49-.26,1.17-.73,1.82.18.89.6,2.06,1.51,2.06.23,0,.7-.36.94-.6.05-.1.13-.13.29-.13.18,0,.39.21.39.39,0,.1-.08.21-.18.34v-.02Z"/>
  <path class="st0" d="M87.29,38.76c-1.15,1.38-2.42,2.47-3.99,3.59-.34.26-1.15.42-1.33.42-1.38,0-1.49-1.12-1.49-1.51.24-.68.29-1.43.47-2.19.1-.36.68-1.69.68-1.95.16-.39.26-.57.36-.96,0-.03-.1-.16-.31-.16-.49.47-.7.86-.88,1.07l-1.38,1.64c-.16.16-.29.29-.42.29-.26,0-.47-.29-.47-.42,0,0,0-.1.1-.23l1.51-1.75c.36-.44.91-.81,1.15-1.07.76-.86.76-1.12,1.59-.96.44.08.94.29.94.94,0,.1-.1.44-.21.83l-.65,2.01c-.03.18-.1.42-.13.6-.47,1.41-.65,1.85-.65,2.45,0,.05.03.23.34.23.18,0,.73-.23.91-.36,1.33-.96,2.84-2.55,3.67-3.49.42,0,.42.47.42.47,0,.18-.21.5-.23.52h0ZM84.45,32.04c-.73,0-.81-1.07-.81-1.56s.16-.65.62-.65c.18,0,.34.1.5.34.08.1.18.13.26.21.39.39.39.5.39.65,0,.34-.57,1.02-.96,1.02h0Z"/>
  <path class="st0" d="M101.85,38.11c-.65.83-1.48,1.88-2.29,2.79-.91,1.02-1.93,1.64-2.92,1.77l-.31.18c-.73,0-1.69-.65-1.69-1.95,0-.7.29-1.41.57-2.03l.37-.89c.1-.29.21-.63.21-.86,0-.39-.08-.42-.5-.42-.57,0-1.25.47-1.75.89-.94.76-1.95,1.69-2.24,2.03-.23.23-.42.47-1.07,1.04-.29.26-.62.65-1.04,1.33-.18.34-.39.44-.65.44-.44,0-.83-.36-.83-.78,0-.1.08-.31.13-.42.55-.94,1.12-1.98,1.33-3.02.03-.21.1-.47.13-.68.05-.23.1-.5.1-.68,0-.16,0-.29-.13-.57-.62.91-1.15,1.54-1.59,2.06-.13.16-.31.36-.7.76-.1.1-.21.16-.34.16-.36,0-.36-.21-.36-.36,0-.08,0-.16.08-.23l.55-.68c.26-.31.57-.68.81-.99l.47-.76.29-.52c.29-.44.6-.78,1.09-1.04.1-.05.18-.05.23-.05.55,0,1.33.65,1.33,1.2,0,.29-.18,1.04-.23,1.35l-.16.78c-.05.23-.05.44-.05.63s-.03.36-.1.68c.34-.23.44-.34.57-.47l.76-.81c.52-.55,1.04-1.09,1.43-1.35,1.07-.73,2.27-1.43,2.94-1.43.05,0,.13,0,.34.05.73.23.91.52.91,1.07,0,.13,0,.29-.03.42-.05.31-.03.62-.08.96l-.1.21c-.13.55-.16.76-.26.99-.05.16-.18.36-.26.57-.23.52-.47,1.12-.47,1.35,0,.62.16.76.68.76.03,0,.29-.08.29-.1.75-.23,1.9-1.35,2.55-2.11l.44-.65c.26-.31.55-.65.99-1.09.13-.13.21-.13.31-.13.21,0,.36.18.36.34,0,.08,0,.13-.1.29v-.03Z"/>
  <path class="st0" d="M112.3,38.47c-.26.36-.55.62-1.43,1.48-1.28,1.2-2.53,1.75-3.44,2.03l-.73,2.01c-.16.42-.31.78-.52,1.12-.34.55-.57.91-.81,1.41-.44.89-1.49,2.03-2.29,2.6-.65.47-1.07.68-1.43.68s-1.28-.81-1.41-1.04l-.31-.62c-.21-.31-.29-.49-.29-.73,0-1.41.62-2.21,1.38-3.15.39-.52,1.12-.94,1.69-1.25.94-.6,1.9-1.15,3.23-1.51.08-.21.18-.5.39-1.22.29-.83.55-1.28.91-3.07-.39.47-.78.94-1.46,1.69-.7.81-1.28,1.43-1.98,1.95-.23.16-.62.34-1.02.5l-.55.23c-.18.08-.34.21-.57.21-.89,0-1.41-.91-1.41-1.77,0-1.07.31-2.19.83-2.97.13-.26.26-.36.42-.44,1.2-1.35,2.6-2.14,3.91-2.63.1-.05.23-.05.36-.05.21,0,.42.03.63.05.16.03.26.03.36.03.52,0,.7.13,1.15.62.13-.26.18-.26.34-.26.05,0,.18.05.39.16.37.23.5.52.5.96,0,.26-.05.49-.1.7-.18.65-.34,1.25-.47,1.82-.26,1.07-.36,1.72-.78,3.02.83-.23,1.67-.83,2.16-1.28l.5-.5c.1-.08.34-.31.57-.55l.94-1.07c.34,0,.44.26.44.5,0,.13,0,.21-.1.34ZM104.95,44.2c.34-.62.57-1.12.78-1.85-1.12.29-1.77.7-2.37,1.2-.73.57-1.3,1.15-1.51,1.38-.62.73-1.12,1.46-1.12,2.63,0,.36,0,.49.18.83.05.1.26.21.52.29.47-.16.68-.23.89-.39.31-.36.42-.49,1.72-2.58.26-.37.52-.76.68-1.02l.23-.5h0ZM106.8,35.01c-.16,0-.47.16-.78.34-2.19.81-4.61,2.53-4.61,4.43,0,.36.13.91.57.91.08,0,.16,0,.18-.03,2.16-1.07,3.99-2.94,5.26-5.13-.13-.47-.29-.52-.62-.52Z"/>
</svg>